HIERARCHY
ROOT Hips
{
OFFSET 0.000000 0.000000 0.000000
CHANNELS 6 Xposition Yposition Zposition Zrotation Xrotation Yrotation 
JOINT Spine
{
OFFSET -0.000000 4.055370 0.000000
CHANNELS 3 Zrotation Xrotation Yrotation 
JOINT Spine1
{
OFFSET -0.000000 15.969724 0.000000
CHANNELS 3 Zrotation Xrotation Yrotation 
JOINT Neck
{
OFFSET -0.000000 5.923678 0.993062
CHANNELS 3 Zrotation Xrotation Yrotation 
JOINT Head
{
OFFSET -0.000000 6.923803 -0.989115
CHANNELS 3 Zrotation Xrotation Yrotation 
End Site
{
OFFSET -0.000000 12.363933 0.000000
}
}
}
JOINT LeftShoulder
{
OFFSET 1.994443 9.819063 -0.138267
CHANNELS 3 Zrotation Xrotation Yrotation 
JOINT LeftArm
{
OFFSET 6.126652 0.000000 0.000000
CHANNELS 3 Zrotation Xrotation Yrotation 
JOINT LeftForeArm
{
OFFSET 15.831441 0.000000 0.000000
CHANNELS 3 Zrotation Xrotation Yrotation 
JOINT LeftHand
{
OFFSET 11.289333 0.000000 0.000000
CHANNELS 3 Zrotation Xrotation Yrotation 
End Site
{
OFFSET 7.418360 0.000000 0.000000
}
}
}
}
}
JOINT RightShoulder
{
OFFSET -1.951887 9.819063 -0.138267
CHANNELS 3 Zrotation Xrotation Yrotation 
JOINT RightArm
{
OFFSET -6.126652 0.000000 0.000000
CHANNELS 3 Zrotation Xrotation Yrotation 
JOINT RightForeArm
{
OFFSET -15.831441 0.000000 0.000000
CHANNELS 3 Zrotation Xrotation Yrotation 
JOINT RightHand
{
OFFSET -11.289333 0.000000 0.000000
CHANNELS 3 Zrotation Xrotation Yrotation 
End Site
{
OFFSET -7.418360 0.000000 0.000000
}
}
}
}
}
}
}
JOINT LeftUpLeg
{
OFFSET 4.945574 0.000000 0.000000
CHANNELS 3 Zrotation Xrotation Yrotation 
JOINT LeftLeg
{
OFFSET -0.000000 -19.520680 0.000000
CHANNELS 3 Zrotation Xrotation Yrotation 
JOINT LeftFoot
{
OFFSET -0.000000 -21.197514 0.000000
CHANNELS 3 Zrotation Xrotation Yrotation 
JOINT LeftToeBase
{
OFFSET -0.000000 -3.214623 7.418360
CHANNELS 3 Zrotation Xrotation Yrotation 
End Site
{
OFFSET -0.000000 0.000000 1.978229
}
}
}
}
}
JOINT RightUpLeg
{
OFFSET -4.945574 0.000000 0.000000
CHANNELS 3 Zrotation Xrotation Yrotation 
JOINT RightLeg
{
OFFSET -0.000000 -19.520680 0.000000
CHANNELS 3 Zrotation Xrotation Yrotation 
JOINT RightFoot
{
OFFSET -0.000000 -21.197514 0.000000
CHANNELS 3 Zrotation Xrotation Yrotation 
JOINT RightToeBase
{
OFFSET -0.000000 -3.214623 7.418360
CHANNELS 3 Zrotation Xrotation Yrotation 
End Site
{
OFFSET -0.000000 0.000000 1.978229
}
}
}
}
}
}
MOTION
Frames:    14
Frame Time:    0.008333
4.150774    44.884350    -15.837796    -0.262034    0.871673    1.580955    -0.130068    -8.185647    0.236044    -1.402376    1.363364    -2.908025    -2.244294    19.684238    0.180550    7.585798    -4.203640    -0.779025    15.005483    1.163614    3.873146    -14.467837    4.710950    -14.819160    0.048779    -0.097017    3.366710    -7.647576    -2.639728    2.190833    -9.929894    -0.049694    8.746319    14.794497    6.052111    0.218208    0.518351    0.070756    -3.104494    15.141841    12.467227    -15.763254    9.028968    3.318404    -1.231280    -3.519128    1.163422    -1.892653    -3.943544    -4.952619    8.757001    0.004236    1.051398    -0.044284    -5.578515    0.361980    10.201809    -1.472488    5.082913    7.442597    5.288472    -6.190324    -18.139922    0.275432    0.702076    -1.945192    
4.149049    44.885185    -15.833619    -0.281465    0.873571    1.553600    -0.096253    -8.181869    0.243879    -1.411812    1.345907    -2.881826    -2.245873    19.688785    0.184463    7.588839    -4.189656    -0.783242    15.017360    1.162652    3.876903    -14.468581    4.739129    -14.815412    0.036976    -0.098566    3.365366    -7.609797    -2.678474    2.191901    -9.946137    -0.055551    8.765657    14.800902    6.113774    0.196519    0.512597    0.075608    -3.109300    15.162126    12.511865    -15.705573    9.049910    3.343105    -1.199745    -3.516031    1.139715    -1.874080    -3.948219    -4.951473    8.734159    0.005198    1.030066    -0.053776    -5.561619    0.346633    10.209309    -1.460166    5.103811    7.447178    5.276469    -6.201333    -18.123851    0.275778    0.704676    -1.947262    
4.146882    44.885731    -15.829272    -0.297440    0.875742    1.529124    -0.067797    -8.178880    0.251576    -1.421363    1.329350    -2.858513    -2.245672    19.693022    0.188459    7.591663    -4.173989    -0.789443    15.031728    1.162456    3.881152    -14.475833    4.747284    -14.817664    0.023831    -0.100153    3.371959    -7.558923    -2.725055    2.201821    -9.961244    -0.059897    8.783259    14.807750    6.200285    0.168813    0.506147    0.080773    -3.094254    15.185263    12.528944    -15.652091    9.069070    3.365227    -1.159221    -3.513745    1.120391    -1.863505    -3.961997    -4.955300    8.705330    0.006000    1.011904    -0.061723    -5.547343    0.332035    10.213317    -1.448206    5.124700    7.450698    5.263781    -6.212379    -18.106784    0.276128    0.706530    -1.949460    
4.142866    44.886173    -15.823211    -0.320814    0.866174    1.512033    -0.039036    -8.167075    0.258930    -1.425273    1.319517    -2.840909    -2.242592    19.690404    0.191955    7.596037    -4.153373    -0.801913    15.049347    1.160729    3.887123    -14.479259    4.775412    -14.818250    0.019197    -0.101533    3.368218    -7.555653    -2.767612    2.220992    -9.974285    -0.064396    8.790317    14.810255    6.278711    0.146520    0.501560    0.085432    -3.074112    15.202691    12.555038    -15.597458    9.102452    3.401054    -1.125894    -3.516791    1.097666    -1.846803    -3.988647    -4.963528    8.666409    0.006573    0.994406    -0.067435    -5.520484    0.335807    10.216793    -1.440849    5.140505    7.442754    5.251421    -6.222379    -18.083503    0.276518    0.706691    -1.952153    
4.138139    44.886734    -15.817267    -0.332424    0.863336    1.499894    -0.028594    -8.164214    0.266616    -1.424340    1.311592    -2.825448    -2.237466    19.691109    0.196002    7.601389    -4.131260    -0.822120    15.071279    1.160512    3.887918    -14.489802    4.793119    -14.822848    0.014618    -0.103190    3.365147    -7.528915    -2.813794    2.289775    -9.986474    -0.063526    8.792718    14.808488    6.340935    0.128445    0.503563    0.090975    -3.054474    15.212396    12.602133    -15.548645    9.125528    3.426032    -1.088259    -3.519667    1.081059    -1.827087    -4.027677    -4.977322    8.613346    0.006892    0.971698    -0.070708    -5.504170    0.332630    10.211514    -1.433501    5.159095    7.435491    5.238232    -6.233639    -18.059845    0.276873    0.705738    -1.954757    
4.131958    44.887119    -15.810233    -0.352231    0.852922    1.491209    -0.013005    -8.152954    0.271635    -1.422548    1.307602    -2.820421    -2.244002    19.676727    0.199504    7.624190    -4.094405    -0.842658    15.087584    1.156751    3.901566    -14.492380    4.809151    -14.825749    0.031722    -0.103756    3.373587    -7.633387    -2.820502    2.238148    -9.999366    -0.063987    8.784063    14.805154    6.375550    0.129657    0.509397    0.094254    -3.035063    15.197985    12.692164    -15.491893    9.161506    3.458701    -1.041085    -3.446648    1.053539    -1.809033    -4.157029    -4.987141    8.547830    0.007079    0.940574    -0.072708    -5.476244    0.338898    10.206260    -1.428464    5.177789    7.422193    5.225576    -6.244800    -18.031517    0.277173    0.703761    -1.957070    
4.124758    44.887615    -15.802497    -0.374774    0.837091    1.479283    0.007832    -8.137694    0.280643    -1.424450    1.299211    -2.814328    -2.258616    19.670489    0.205147    7.656156    -4.053069    -0.870078    15.106743    1.151685    3.913851    -14.504075    4.806512    -14.837682    0.043513    -0.105231    3.384829    -7.648271    -2.806935    2.298868    -10.017653    -0.058107    8.777805    14.803707    6.392230    0.140284    0.525541    0.100305    -3.028608    15.180525    12.823976    -15.447562    9.203209    3.495183    -0.977683    -3.452432    1.046796    -1.791050    -4.219584    -5.015447    8.466606    0.007368    0.902001    -0.075796    -5.391991    0.349967    10.200252    -1.520156    5.214082    7.390561    5.258609    -6.267274    -17.978456    0.277336    0.701473    -1.958465    
4.116835    44.888534    -15.794719    -0.396688    0.825051    1.466869    0.019597    -8.124920    0.285020    -1.416926    1.295031    -2.810724    -2.282015    19.651427    0.209441    7.704702    -4.000679    -0.909996    15.119399    1.143053    3.929442    -14.512596    4.800201    -14.841653    0.073030    -0.105449    3.390917    -7.802365    -2.806297    2.317137    -10.030257    -0.056750    8.757882    14.792981    6.416821    0.162125    0.537837    0.103510    -3.010211    15.149525    12.984922    -15.389536    9.244012    3.525301    -0.905978    -3.455957    1.046017    -1.764681    -4.293525    -5.050206    8.371663    0.007972    0.858472    -0.082045    -5.356972    0.352056    10.191842    -1.517243    5.243119    7.370033    5.245386    -6.279845    -17.937641    0.277358    0.698515    -1.958903    
4.107592    44.889538    -15.786724    -0.419875    0.807462    1.449276    0.039412    -8.108933    0.299030    -1.417702    1.286695    -2.803953    -2.309520    19.638921    0.218831    7.753415    -3.938255    -0.961688    15.147029    1.125881    3.949613    -14.533634    4.799407    -14.865327    0.072932    -0.108273    3.416908    -7.720368    -2.761117    2.316666    -10.058713    -0.059463    8.746456    14.793463    6.464307    0.185037    0.562741    0.113357    -3.005969    15.149814    13.161583    -15.354621    9.289212    3.556395    -0.818477    -3.459453    1.057895    -1.742032    -4.378376    -5.092257    8.265499    0.009001    0.813015    -0.092661    -5.315471    0.354515    10.181172    -1.517142    5.280135    7.344515    5.230299    -6.294195    -17.888906    0.277235    0.695095    -1.958443    
4.097151    44.891064    -15.778244    -0.446107    0.791675    1.430575    0.049343    -8.096602    0.306268    -1.403238    1.289985    -2.800815    -2.344908    19.612055    0.225505    7.819991    -3.868553    -1.031164    15.164355    1.106499    3.970070    -14.545968    4.804312    -14.870914    0.092827    -0.109310    3.422065    -7.835125    -2.771702    2.313859    -10.076403    -0.070893    8.727852    14.780278    6.538584    0.207114    0.574755    0.118751    -2.981557    15.145080    13.354744    -15.288383    9.338864    3.602182    -0.721468    -3.462376    1.040892    -1.725855    -4.472528    -5.124927    8.161281    0.010437    0.767406    -0.107418    -5.268070    0.351424    10.169912    -1.518725    5.324427    7.315741    5.213731    -6.308968    -17.832354    0.276997    0.691382    -1.957164    
4.084839    44.893135    -15.769586    -0.470554    0.771004    1.407900    0.061292    -8.082070    0.323417    -1.394050    1.286173    -2.795759    -2.382563    19.596322    0.237681    7.884763    -3.788554    -1.123671    15.197223    1.081225    3.994402    -14.571057    4.820040    -14.899133    0.066635    -0.113341    3.434510    -7.656700    -2.823235    2.332103    -10.111875    -0.085190    8.722862    14.780300    6.651397    0.220490    0.598257    0.131398    -2.963505    15.174182    13.539017    -15.238785    9.389960    3.641744    -0.604735    -3.464102    1.048637    -1.723056    -4.577823    -5.169818    8.050485    0.012192    0.723436    -0.125556    -5.184951    0.348474    10.152398    -1.582395    5.386519    7.273404    5.222751    -6.332342    -17.754531    0.276599    0.687544    -1.954843    
4.069886    44.895336    -15.759409    -0.504526    0.743513    1.388432    0.065461    -8.063698    0.332480    -1.365246    1.291950    -2.801017    -2.433986    19.571941    0.246672    7.975843    -3.702665    -1.246862    15.215018    1.059436    4.017566    -14.583872    4.839536    -14.907453    0.068164    -0.115256    3.430747    -7.715374    -2.897532    2.353574    -10.137918    -0.101212    8.715955    14.766938    6.774034    0.230638    0.612879    0.138486    -2.925526    15.173944    13.730101    -15.149167    9.453591    3.662771    -0.465719    -3.464375    1.108116    -1.729754    -4.694245    -5.242728    7.926910    0.014198    0.681502    -0.146308    -5.097288    0.352054    10.131391    -1.556509    5.495012    7.219107    5.142490    -6.388916    -17.665778    0.276009    0.683755    -1.951131    
4.052934    44.898021    -15.748659    -0.536355    0.709670    1.363262    0.069682    -8.038936    0.348733    -1.339614    1.282001    -2.802794    -2.497417    19.562375    0.260641    8.080704    -3.603584    -1.411494    15.242078    1.036958    4.044363    -14.603978    4.875009    -14.935655    0.043169    -0.119366    3.442457    -7.567707    -2.935104    2.371400    -10.183141    -0.110350    8.717182    14.765860    6.913796    0.238978    0.644846    0.151005    -2.891373    15.175927    13.904188    -15.072834    9.518782    3.681762    -0.317868    -3.465346    1.188028    -1.741232    -4.817111    -5.326075    7.801487    0.016457    0.641688    -0.169802    -5.022278    0.354755    10.101289    -1.574494    5.564860    7.175056    5.121824    -6.409790    -17.575549    0.275170    0.679161    -1.945801    
4.034318    44.901310    -15.737191    -0.573519    0.673774    1.333970    0.066795    -8.013317    0.356266    -1.299288    1.278359    -2.807398    -2.587322    19.546839    0.271920    8.231696    -3.499728    -1.626029    15.253445    1.019544    4.067870    -14.613171    4.905289    -14.942477    0.047137    -0.121286    3.440412    -7.661421    -2.991693    2.384928    -10.223416    -0.113267    8.712072    14.753696    7.073540    0.244270    0.672695    0.157308    -2.819425    15.139168    14.050901    -14.968964    9.620931    3.697469    -0.156181    -3.465012    1.284663    -1.760460    -4.972512    -5.420491    7.675896    0.019001    0.603942    -0.196294    -4.937509    0.353280    10.065111    -1.596482    5.645849    7.130778    5.101278    -6.432111    -17.470433    0.274205    0.674183    -1.939557    
